#!OML:ASF H:\Pregnant\Project 1\Capture day 1\Session 1\femalepreg.ASF
:FULLY-SPECIFIED
:DEGREES
409
root 3.49579 15.0974 32.0248 141.439 -84.2388 -118.61
lowerback -11.6172 0.756341 -2.71697
upperback -7.45222 0.886514 1.77465
thorax -1.3635 0.421576 3.46817
lowerneck -24.3782 5.81065 8.80933
upperneck 13.8997 0.0621296 19.3323
head 8.66632 2.32263 5.30772
rclavicle -1.66482e-015 -3.57812e-015
rhumerus -24.9524 2.5619 -78.9191
rradius 88.9541
rwrist -70.5226
rhand 5.33852 -40.3551
rfingers 7.12502
rthumb 30.6928 -67.8146
lclavicle -1.66482e-015 -3.57812e-015
lhumerus -22.8278 -25.8437 85.3503
lradius 76.341
lwrist 62.0565
lhand 2.35275 15.5845
lfingers 7.12502
lthumb 27.8419 43.5416
rfemur -58.6831 -0.92333 26.3179
rtibia 77.9745
rfoot -8.4871 5.21323
rtoes -18.6377
lfemur -44.9127 -5.42897 -17.987
ltibia 37.9071
lfoot -11.1198 6.48614
ltoes -10.1895
410
root 3.49934 15.1008 31.9997 139.57 -84.2859 -116.807
lowerback -11.6601 0.789439 -2.62727
upperback -7.4423 0.923905 1.76049
thorax -1.33012 0.436631 3.40706
lowerneck -24.2868 5.8792 8.9123
upperneck 14.2303 -0.00570965 19.6041
head 8.78223 2.3452 5.39502
rclavicle -1.25483e-014 -9.54166e-015
rhumerus -25.2383 2.40292 -79.1141
rradius 90.0702
rwrist -72.3468
rhand 6.45265 -40.2693
rfingers 7.12502
rthumb 31.7545 -67.5242
lclavicle -1.25483e-014 -9.54166e-015
lhumerus -22.6417 -24.3273 85.123
lradius 76.9366
lwrist 63.71
lhand 2.56621 15.7303
lfingers 7.12502
lthumb 28.046 43.6542
rfemur -58.2071 -1.47525 26.1299
rtibia 78.1252
rfoot -8.48188 5.70118
rtoes -18.6421
lfemur -44.8834 -5.33315 -17.8663
ltibia 37.8948
lfoot -11.07 6.2364
ltoes -10.3133
411
root 3.50281 15.104 31.9732 137.703 -84.3476 -114.992
lowerback -11.718 0.818524 -2.55386
upperback -7.43745 0.957245 1.73643
thorax -1.29389 0.44986 3.34469
lowerneck -24.194 5.94659 9.00692
upperneck 14.5554 -0.0756276 19.8866
head 8.89702 2.36717 5.48785
rclavicle -8.70925e-015 1.59028e-015
rhumerus -25.5719 2.27076 -79.3267
rradius 91.1147
rwrist -74.0672
rhand 7.50313 -40.1247
rfingers 7.12502
rthumb 32.7545 -67.1764
lclavicle -8.70925e-015 1.59028e-015
lhumerus -22.4792 -22.8091 84.891
lradius 77.5156
lwrist 65.3475
lhand 2.68316 15.8613
lfingers 7.12502
lthumb 28.1578 43.7667
rfemur -57.7187 -2.03609 25.9039
rtibia 78.1865
rfoot -8.42357 6.2061
rtoes -18.3651
lfemur -44.8589 -5.25866 -17.7516
ltibia 37.863
lfoot -11.0223 5.99202
ltoes -10.4327
412
root 3.50639 15.1071 31.9454 135.816 -84.4175 -113.147
lowerback -11.7868 0.842275 -2.49555
upperback -7.43591 0.984697 1.70934
thorax -1.25505 0.460464 3.28733
lowerneck -24.0905 6.01337 9.08499
upperneck 14.8657 -0.13999 20.1802
head 9.00486 2.3903 5.58768
rclavicle 4.70871e-015 -2.3059e-014
rhumerus -25.9532 2.17847 -79.5501
rradius 92.0979
rwrist -75.6312
rhand 8.52655 -39.9634
rfingers 7.12502
rthumb 33.7275 -66.8073
lclavicle 4.70871e-015 -2.3059e-014
lhumerus -22.3417 -21.2861 84.6524
lradius 78.0791
lwrist 66.9391
lhand 2.70014 15.9653
lfingers 7.12502
lthumb 28.174 43.8681
rfemur -57.2172 -2.60122 25.6439
rtibia 78.1615
rfoot -8.31256 6.60537
rtoes -17.797
lfemur -44.8382 -5.20109 -17.6377
ltibia 37.8146
lfoot -10.9795 5.75342
ltoes -10.5177
413
root 3.51002 15.1099 31.9163 133.95 -84.4972 -111.311
lowerback -11.8643 0.869422 -2.44586
upperback -7.43532 1.01757 1.66817
thorax -1.21279 0.473758 3.22091
lowerneck -23.9986 6.07169 9.13882
upperneck 15.1533 -0.210004 20.4888
head 9.10772 2.40966 5.69612
rclavicle -9.50439e-015 -9.93923e-015
rhumerus -26.385 2.10164 -79.7881
rradius 93.0321
rwrist -76.9863
rhand 9.49723 -39.8072
rfingers 7.12502
rthumb 34.6493 -66.4445
lclavicle -9.50439e-015 -9.93923e-015
lhumerus -22.2144 -19.8084 84.3913
lradius 78.6176
lwrist 68.4792
lhand 2.57699 15.9433
lfingers 7.12502
lthumb 28.0563 43.8655
rfemur -56.7053 -3.15687 25.3432
rtibia 78.056
rfoot -8.18319 6.74677
rtoes -17.1152
lfemur -44.823 -5.15945 -17.5306
ltibia 37.7543
lfoot -10.9397 5.5235
ltoes -10.5966
414
root 3.51412 15.1125 31.8861 132.079 -84.5785 -109.465
lowerback -11.9436 0.899079 -2.40249
upperback -7.43532 1.05439 1.62137
thorax -1.17042 0.48916 3.15269
lowerneck -23.9026 6.12298 9.17615
upperneck 15.4175 -0.277312 20.7911
head 9.20132 2.42678 5.80454
rclavicle 9.93923e-016 -3.33958e-014
rhumerus -26.8697 2.05437 -80.0334
rradius 93.9243
rwrist -78.092
rhand 10.4347 -39.6665
rfingers 7.12502
rthumb 35.5385 -66.0951
lclavicle 9.93923e-016 -3.33958e-014
lhumerus -22.1066 -18.3519 84.116
lradius 79.1299
lwrist 69.9114
lhand 2.39825 15.835
lfingers 7.12502
lthumb 27.8854 43.785
rfemur -56.1768 -3.68541 25.004
rtibia 77.871
rfoot -8.07044 6.53069
rtoes -16.4866
lfemur -44.8117 -5.13036 -17.4212
ltibia 37.6874
lfoot -10.9069 5.30339
ltoes -10.6141
